<svg width="71" height="72" viewBox="0 0 71 72" fill="none" xmlns="http://www.w3.org/2000/svg">
<path d="M53.966 48.9399C56.2545 45.2131 57.5865 40.7717 57.5865 35.9967C57.5865 31.2218 56.2545 26.7804 53.966 23.0536C53.5103 22.3124 52.5639 22.1272 51.8729 22.6248C50.1854 23.8265 48.3776 24.8587 46.4748 25.6845C42.9545 27.2144 39.0987 28.0561 35.0526 28.0561C31.0066 28.0561 27.1508 27.2144 23.6305 25.6845C21.7276 24.8587 19.9199 23.8265 18.2374 22.6248C17.5413 22.1272 16.5949 22.3124 16.1392 23.0536C13.8508 26.7804 12.5188 31.2218 12.5188 35.9967C12.5188 40.7717 13.8508 45.2131 16.1392 48.9399C16.5949 49.681 17.5413 49.8663 18.2374 49.3687C19.9199 48.167 21.7276 47.1347 23.6305 46.3142C27.1508 44.7843 31.0066 43.9373 35.0526 43.9373C39.0987 43.9373 42.9545 44.7843 46.4748 46.3142C48.3776 47.1347 50.1854 48.167 51.8729 49.3687C52.5639 49.8663 53.5103 49.681 53.966 48.9399Z" fill="black"/>
<path d="M67.7618 0.184626L46.9605 11.2168C50.4908 13.1119 53.5554 15.8223 55.939 19.1203C56.5149 18.5274 57.0757 17.9133 57.6115 17.2728C58.0922 16.7011 58.9485 16.7275 59.3691 17.3416C62.9746 22.5771 65.0977 29.0249 65.0977 35.9967C65.0977 42.9685 62.9746 49.4163 59.3742 54.6518C58.9485 55.2712 58.0922 55.2923 57.6115 54.7206C57.0807 54.0801 56.5199 53.4607 55.944 52.8678C53.5504 56.1764 50.4708 58.9027 46.9255 60.7978L67.7668 71.8141C68.8384 72.3858 70.1053 71.56 70.1053 70.2842V1.70922C70.1053 0.438725 68.8384 -0.387097 67.7618 0.184626Z" fill="black"/>
<path d="M14.1663 52.8687C13.5854 53.4616 13.0246 54.0809 12.4938 54.7215C12.018 55.2932 11.1568 55.272 10.7311 54.6527C7.13071 49.4172 5.00752 42.9694 5.00752 35.9976C5.00752 29.0257 7.13571 22.578 10.7361 17.3425C11.1618 16.7284 12.018 16.7019 12.4938 17.2736C13.0296 17.9142 13.5854 18.5283 14.1663 19.1211C16.5549 15.8232 19.6195 13.1128 23.1448 11.2176L2.34352 0.185481C1.2669 -0.386242 0 0.43958 0 1.71007V70.285C0 71.5608 1.2669 72.3866 2.33851 71.8149L23.1798 60.7987C19.6395 58.9035 16.5549 56.1773 14.1663 52.8687Z" fill="black"/>
</svg>
